<?xml version="1.0" encoding="utf-8" standalone="no"?>
<!DOCTYPE svg PUBLIC "-//W3C//DTD SVG 1.1//EN"
  "http://www.w3.org/Graphics/SVG/1.1/DTD/svg11.dtd">
<!-- Created with matplotlib (http://matplotlib.org/) -->
<svg height="208pt" version="1.1" viewBox="0 0 404 208" width="404pt" xmlns="http://www.w3.org/2000/svg" xmlns:xlink="http://www.w3.org/1999/xlink">
 <defs>
  <style type="text/css">
*{stroke-linecap:butt;stroke-linejoin:round;}
  </style>
 </defs>
 <g id="figure_1">
  <g id="patch_1">
   <path d="
M0 208.924
L405 208.924
L405 0
L0 0
z
" style="fill:#ffffff;"/>
  </g>
  <g id="axes_1">
   <g id="patch_2">
    <path d="
M7.2 180
L184.745 180
L184.745 7.2
L7.2 7.2
z
" style="fill:#ffffff;"/>
   </g>
   <g id="line2d_1">
    <defs>
     <path d="
M0 8
C2.12162 8 4.15664 7.15707 5.65685 5.65685
C7.15707 4.15664 8 2.12162 8 0
C8 -2.12162 7.15707 -4.15664 5.65685 -5.65685
C4.15664 -7.15707 2.12162 -8 0 -8
C-2.12162 -8 -4.15664 -7.15707 -5.65685 -5.65685
C-7.15707 -4.15664 -8 -2.12162 -8 0
C-8 2.12162 -7.15707 4.15664 -5.65685 5.65685
C-4.15664 7.15707 -2.12162 8 0 8
z
" id="m3421c580d4" style="stroke:#4daf4a;stroke-width:0.5;"/>
    </defs>
    <g clip-path="url(#p54d46fcb13)">
     <use style="fill:#4daf4a;opacity:0.6;stroke:#4daf4a;stroke-width:0.5;" x="60.3457171763" xlink:href="#m3421c580d4" y="44.5437835003"/>
    </g>
   </g>
   <g id="line2d_2">
    <defs>
     <path d="
M0 8
C2.12162 8 4.15664 7.15707 5.65685 5.65685
C7.15707 4.15664 8 2.12162 8 0
C8 -2.12162 7.15707 -4.15664 5.65685 -5.65685
C4.15664 -7.15707 2.12162 -8 0 -8
C-2.12162 -8 -4.15664 -7.15707 -5.65685 -5.65685
C-7.15707 -4.15664 -8 -2.12162 -8 0
C-8 2.12162 -7.15707 4.15664 -5.65685 5.65685
C-4.15664 7.15707 -2.12162 8 0 8
z
" id="m9e7389d29d" style="stroke:#377eb8;stroke-width:0.5;"/>
    </defs>
    <g clip-path="url(#p54d46fcb13)">
     <use style="fill:#377eb8;opacity:0.6;stroke:#377eb8;stroke-width:0.5;" x="21.601181821" xlink:href="#m9e7389d29d" y="119.724982838"/>
    </g>
   </g>
   <g id="line2d_3">
    <defs>
     <path d="
M0 8
C2.12162 8 4.15664 7.15707 5.65685 5.65685
C7.15707 4.15664 8 2.12162 8 0
C8 -2.12162 7.15707 -4.15664 5.65685 -5.65685
C4.15664 -7.15707 2.12162 -8 0 -8
C-2.12162 -8 -4.15664 -7.15707 -5.65685 -5.65685
C-7.15707 -4.15664 -8 -2.12162 -8 0
C-8 2.12162 -7.15707 4.15664 -5.65685 5.65685
C-4.15664 7.15707 -2.12162 8 0 8
z
" id="m091ee55d8b" style="stroke:#994ea2;stroke-width:0.5;"/>
    </defs>
    <g clip-path="url(#p54d46fcb13)">
     <use style="fill:#994ea2;opacity:0.6;stroke:#994ea2;stroke-width:0.5;" x="41.215126476" xlink:href="#m091ee55d8b" y="66.2601413032"/>
    </g>
   </g>
   <g id="line2d_4">
    <defs>
     <path d="
M0 8
C2.12162 8 4.15664 7.15707 5.65685 5.65685
C7.15707 4.15664 8 2.12162 8 0
C8 -2.12162 7.15707 -4.15664 5.65685 -5.65685
C4.15664 -7.15707 2.12162 -8 0 -8
C-2.12162 -8 -4.15664 -7.15707 -5.65685 -5.65685
C-7.15707 -4.15664 -8 -2.12162 -8 0
C-8 2.12162 -7.15707 4.15664 -5.65685 5.65685
C-4.15664 7.15707 -2.12162 8 0 8
z
" id="m8ae8b01a5e" style="stroke:#e41b1c;stroke-width:0.5;"/>
    </defs>
    <g clip-path="url(#p54d46fcb13)">
     <use style="fill:#e41b1c;opacity:0.6;stroke:#e41b1c;stroke-width:0.5;" x="129.71789306" xlink:href="#m8ae8b01a5e" y="143.188313337"/>
    </g>
   </g>
   <g id="line2d_5">
    <defs>
     <path d="
M0 8
C2.12162 8 4.15664 7.15707 5.65685 5.65685
C7.15707 4.15664 8 2.12162 8 0
C8 -2.12162 7.15707 -4.15664 5.65685 -5.65685
C4.15664 -7.15707 2.12162 -8 0 -8
C-2.12162 -8 -4.15664 -7.15707 -5.65685 -5.65685
C-7.15707 -4.15664 -8 -2.12162 -8 0
C-8 2.12162 -7.15707 4.15664 -5.65685 5.65685
C-4.15664 7.15707 -2.12162 8 0 8
z
" id="m24b84d393c" style="stroke:#ff7f00;stroke-width:0.5;"/>
    </defs>
    <g clip-path="url(#p54d46fcb13)">
     <use style="fill:#ff7f00;opacity:0.6;stroke:#ff7f00;stroke-width:0.5;" x="100.364139203" xlink:href="#m24b84d393c" y="135.794131242"/>
    </g>
   </g>
   <g id="patch_3">
    <path d="
M7.2 180
L7.2 7.2" style="fill:none;stroke:#000000;stroke-linecap:square;stroke-linejoin:miter;"/>
   </g>
   <g id="patch_4">
    <path d="
M7.2 7.2
L184.745 7.2" style="fill:none;stroke:#000000;stroke-linecap:square;stroke-linejoin:miter;"/>
   </g>
   <g id="patch_5">
    <path d="
M184.745 180
L184.745 7.2" style="fill:none;stroke:#000000;stroke-linecap:square;stroke-linejoin:miter;"/>
   </g>
   <g id="patch_6">
    <path d="
M7.2 180
L184.745 180" style="fill:none;stroke:#000000;stroke-linecap:square;stroke-linejoin:miter;"/>
   </g>
   <g id="matplotlib.axis_1">
    <g id="text_1">
     <!-- A -->
     <defs>
      <path d="
M34.1875 63.1875
L20.7969 26.9062
L47.6094 26.9062
z

M28.6094 72.9062
L39.7969 72.9062
L67.5781 0
L57.3281 0
L50.6875 18.7031
L17.8281 18.7031
L11.1875 0
L0.78125 0
z
" id="BitstreamVeraSans-Roman-41"/>
     </defs>
     <g transform="translate(90.2014772727 198.1301)scale(0.1728 -0.1728)">
      <use xlink:href="#BitstreamVeraSans-Roman-41"/>
     </g>
    </g>
   </g>
   <g id="matplotlib.axis_2"/>
   <g id="text_2">
    <!-- 1 -->
    <defs>
     <path d="
M12.4062 8.29688
L28.5156 8.29688
L28.5156 63.9219
L10.9844 60.4062
L10.9844 69.3906
L28.4219 72.9062
L38.2812 72.9062
L38.2812 8.29688
L54.3906 8.29688
L54.3906 0
L12.4062 0
z
" id="BitstreamVeraSans-Roman-31"/>
    </defs>
    <g transform="translate(58.1754046763 47.3031585003)scale(0.1 -0.1)">
     <use xlink:href="#BitstreamVeraSans-Roman-31"/>
    </g>
   </g>
   <g id="text_3">
    <!-- 2 -->
    <defs>
     <path d="
M19.1875 8.29688
L53.6094 8.29688
L53.6094 0
L7.32812 0
L7.32812 8.29688
Q12.9375 14.1094 22.625 23.8906
Q32.3281 33.6875 34.8125 36.5312
Q39.5469 41.8438 41.4219 45.5312
Q43.3125 49.2188 43.3125 52.7812
Q43.3125 58.5938 39.2344 62.25
Q35.1562 65.9219 28.6094 65.9219
Q23.9688 65.9219 18.8125 64.3125
Q13.6719 62.7031 7.8125 59.4219
L7.8125 69.3906
Q13.7656 71.7812 18.9375 73
Q24.125 74.2188 28.4219 74.2188
Q39.75 74.2188 46.4844 68.5469
Q53.2188 62.8906 53.2188 53.4219
Q53.2188 48.9219 51.5312 44.8906
Q49.8594 40.875 45.4062 35.4062
Q44.1875 33.9844 37.6406 27.2188
Q31.1094 20.4531 19.1875 8.29688" id="BitstreamVeraSans-Roman-32"/>
    </defs>
    <g transform="translate(19.287119321 122.484357838)scale(0.1 -0.1)">
     <use xlink:href="#BitstreamVeraSans-Roman-32"/>
    </g>
   </g>
   <g id="text_4">
    <!-- 3 -->
    <defs>
     <path d="
M40.5781 39.3125
Q47.6562 37.7969 51.625 33
Q55.6094 28.2188 55.6094 21.1875
Q55.6094 10.4062 48.1875 4.48438
Q40.7656 -1.42188 27.0938 -1.42188
Q22.5156 -1.42188 17.6562 -0.515625
Q12.7969 0.390625 7.625 2.20312
L7.625 11.7188
Q11.7188 9.32812 16.5938 8.10938
Q21.4844 6.89062 26.8125 6.89062
Q36.0781 6.89062 40.9375 10.5469
Q45.7969 14.2031 45.7969 21.1875
Q45.7969 27.6406 41.2812 31.2656
Q36.7656 34.9062 28.7188 34.9062
L20.2188 34.9062
L20.2188 43.0156
L29.1094 43.0156
Q36.375 43.0156 40.2344 45.9219
Q44.0938 48.8281 44.0938 54.2969
Q44.0938 59.9062 40.1094 62.9062
Q36.1406 65.9219 28.7188 65.9219
Q24.6562 65.9219 20.0156 65.0312
Q15.375 64.1562 9.8125 62.3125
L9.8125 71.0938
Q15.4375 72.6562 20.3438 73.4375
Q25.25 74.2188 29.5938 74.2188
Q40.8281 74.2188 47.3594 69.1094
Q53.9062 64.0156 53.9062 55.3281
Q53.9062 49.2656 50.4375 45.0938
Q46.9688 40.9219 40.5781 39.3125" id="BitstreamVeraSans-Roman-33"/>
    </defs>
    <g transform="translate(38.815907726 69.0195163032)scale(0.1 -0.1)">
     <use xlink:href="#BitstreamVeraSans-Roman-33"/>
    </g>
   </g>
   <g id="text_5">
    <!-- 4 -->
    <defs>
     <path d="
M37.7969 64.3125
L12.8906 25.3906
L37.7969 25.3906
z

M35.2031 72.9062
L47.6094 72.9062
L47.6094 25.3906
L58.0156 25.3906
L58.0156 17.1875
L47.6094 17.1875
L47.6094 0
L37.7969 0
L37.7969 17.1875
L4.89062 17.1875
L4.89062 26.7031
z
" id="BitstreamVeraSans-Roman-34"/>
    </defs>
    <g transform="translate(127.06164306 145.947688337)scale(0.1 -0.1)">
     <use xlink:href="#BitstreamVeraSans-Roman-34"/>
    </g>
   </g>
   <g id="text_6">
    <!-- 5 -->
    <defs>
     <path d="
M10.7969 72.9062
L49.5156 72.9062
L49.5156 64.5938
L19.8281 64.5938
L19.8281 46.7344
Q21.9688 47.4688 24.1094 47.8281
Q26.2656 48.1875 28.4219 48.1875
Q40.625 48.1875 47.75 41.5
Q54.8906 34.8125 54.8906 23.3906
Q54.8906 11.625 47.5625 5.09375
Q40.2344 -1.42188 26.9062 -1.42188
Q22.3125 -1.42188 17.5469 -0.640625
Q12.7969 0.140625 7.71875 1.70312
L7.71875 11.625
Q12.1094 9.23438 16.7969 8.0625
Q21.4844 6.89062 26.7031 6.89062
Q35.1562 6.89062 40.0781 11.3281
Q45.0156 15.7656 45.0156 23.3906
Q45.0156 31 40.0781 35.4375
Q35.1562 39.8906 26.7031 39.8906
Q22.75 39.8906 18.8125 39.0156
Q14.8906 38.1406 10.7969 36.2812
z
" id="BitstreamVeraSans-Roman-35"/>
    </defs>
    <g transform="translate(98.0055454529 138.553506242)scale(0.1 -0.1)">
     <use xlink:href="#BitstreamVeraSans-Roman-35"/>
    </g>
   </g>
  </g>
  <g id="axes_2">
   <g id="patch_7">
    <path d="
M220.255 180
L397.8 180
L397.8 7.2
L220.255 7.2
z
" style="fill:#ffffff;"/>
   </g>
   <g id="line2d_6">
    <g clip-path="url(#pf0eb53addb)">
     <use style="fill:#4daf4a;opacity:0.6;stroke:#4daf4a;stroke-width:0.5;" x="365.807467297" xlink:href="#m3421c580d4" y="150.449479906"/>
    </g>
   </g>
   <g id="line2d_7">
    <g clip-path="url(#pf0eb53addb)">
     <use style="fill:#377eb8;opacity:0.6;stroke:#377eb8;stroke-width:0.5;" x="240.574551307" xlink:href="#m9e7389d29d" y="84.3504928851"/>
    </g>
   </g>
   <g id="line2d_8">
    <g clip-path="url(#pf0eb53addb)">
     <use style="fill:#994ea2;opacity:0.6;stroke:#994ea2;stroke-width:0.5;" x="286.24615123" xlink:href="#m091ee55d8b" y="143.925134194"/>
    </g>
   </g>
   <g id="line2d_9">
    <g clip-path="url(#pf0eb53addb)">
     <use style="fill:#e41b1c;opacity:0.6;stroke:#e41b1c;stroke-width:0.5;" x="233.892137657" xlink:href="#m8ae8b01a5e" y="60.3427711779"/>
    </g>
   </g>
   <g id="line2d_10">
    <g clip-path="url(#pf0eb53addb)">
     <use style="fill:#ff7f00;opacity:0.6;stroke:#ff7f00;stroke-width:0.5;" x="252.129067637" xlink:href="#m24b84d393c" y="41.5670538306"/>
    </g>
   </g>
   <g id="patch_8">
    <path d="
M220.255 180
L220.255 7.2" style="fill:none;stroke:#000000;stroke-linecap:square;stroke-linejoin:miter;"/>
   </g>
   <g id="patch_9">
    <path d="
M220.255 7.2
L397.8 7.2" style="fill:none;stroke:#000000;stroke-linecap:square;stroke-linejoin:miter;"/>
   </g>
   <g id="patch_10">
    <path d="
M397.8 180
L397.8 7.2" style="fill:none;stroke:#000000;stroke-linecap:square;stroke-linejoin:miter;"/>
   </g>
   <g id="patch_11">
    <path d="
M220.255 180
L397.8 180" style="fill:none;stroke:#000000;stroke-linecap:square;stroke-linejoin:miter;"/>
   </g>
   <g id="matplotlib.axis_3">
    <g id="text_7">
     <!-- B -->
     <defs>
      <path d="
M19.6719 34.8125
L19.6719 8.10938
L35.5 8.10938
Q43.4531 8.10938 47.2812 11.4062
Q51.125 14.7031 51.125 21.4844
Q51.125 28.3281 47.2812 31.5625
Q43.4531 34.8125 35.5 34.8125
z

M19.6719 64.7969
L19.6719 42.8281
L34.2812 42.8281
Q41.5 42.8281 45.0312 45.5312
Q48.5781 48.25 48.5781 53.8125
Q48.5781 59.3281 45.0312 62.0625
Q41.5 64.7969 34.2812 64.7969
z

M9.8125 72.9062
L35.0156 72.9062
Q46.2969 72.9062 52.3906 68.2188
Q58.5 63.5312 58.5 54.8906
Q58.5 48.1875 55.375 44.2344
Q52.25 40.2812 46.1875 39.3125
Q53.4688 37.75 57.5 32.7812
Q61.5312 27.8281 61.5312 20.4062
Q61.5312 10.6406 54.8906 5.3125
Q48.25 0 35.9844 0
L9.8125 0
z
" id="BitstreamVeraSans-Roman-42"/>
     </defs>
     <g transform="translate(304.558772727 198.1301)scale(0.1728 -0.1728)">
      <use xlink:href="#BitstreamVeraSans-Roman-42"/>
     </g>
    </g>
   </g>
   <g id="matplotlib.axis_4"/>
   <g id="text_8">
    <!-- 1 -->
    <g transform="translate(363.637154797 153.208854906)scale(0.1 -0.1)">
     <use xlink:href="#BitstreamVeraSans-Roman-31"/>
    </g>
   </g>
   <g id="text_9">
    <!-- 2 -->
    <g transform="translate(238.260488807 87.1098678851)scale(0.1 -0.1)">
     <use xlink:href="#BitstreamVeraSans-Roman-32"/>
    </g>
   </g>
   <g id="text_10">
    <!-- 3 -->
    <g transform="translate(283.84693248 146.684509194)scale(0.1 -0.1)">
     <use xlink:href="#BitstreamVeraSans-Roman-33"/>
    </g>
   </g>
   <g id="text_11">
    <!-- 4 -->
    <g transform="translate(231.235887657 63.1021461779)scale(0.1 -0.1)">
     <use xlink:href="#BitstreamVeraSans-Roman-34"/>
    </g>
   </g>
   <g id="text_12">
    <!-- 5 -->
    <g transform="translate(249.770473887 44.3264288306)scale(0.1 -0.1)">
     <use xlink:href="#BitstreamVeraSans-Roman-35"/>
    </g>
   </g>
  </g>
 </g>
 <defs>
  <clipPath id="p54d46fcb13">
   <rect height="172.8" width="177.545454545" x="7.2" y="7.2"/>
  </clipPath>
  <clipPath id="pf0eb53addb">
   <rect height="172.8" width="177.545454545" x="220.254545455" y="7.2"/>
  </clipPath>
 </defs>
</svg>
