<?xml version="1.0" encoding="utf-8" standalone="no"?>
<!DOCTYPE svg PUBLIC "-//W3C//DTD SVG 1.1//EN"
  "http://www.w3.org/Graphics/SVG/1.1/DTD/svg11.dtd">
<!-- Created with matplotlib (http://matplotlib.org/) -->
<svg height="187pt" version="1.1" viewBox="0 0 181 187" width="181pt" xmlns="http://www.w3.org/2000/svg" xmlns:xlink="http://www.w3.org/1999/xlink">
 <defs>
  <style type="text/css">
*{stroke-linecap:butt;stroke-linejoin:round;}
  </style>
 </defs>
 <g id="figure_1">
  <g id="patch_1">
   <path d="
M0 187.2
L181.8 187.2
L181.8 0
L0 0
z
" style="fill:#ffffff;"/>
  </g>
  <g id="axes_1">
   <g id="patch_2">
    <path d="
M7.2 180
L174.6 180
L174.6 7.2
L7.2 7.2
z
" style="fill:#ffffff;"/>
   </g>
   <g id="patch_3">
    <path clip-path="url(#pa49cb217f1)" d="
M56.2252 54.495
C58.5166 54.495 60.7144 53.5846 62.3346 51.9644
C63.9549 50.3441 64.8652 48.1463 64.8652 45.855
C64.8652 43.5636 63.9549 41.3658 62.3346 39.7456
C60.7144 38.1253 58.5166 37.215 56.2252 37.215
C53.9339 37.215 51.7361 38.1253 50.1158 39.7456
C48.4956 41.3658 47.5852 43.5636 47.5852 45.855
C47.5852 48.1463 48.4956 50.3441 50.1158 51.9644
C51.7361 53.5846 53.9339 54.495 56.2252 54.495
z
" style="fill:#ff7f00;opacity:0.6;"/>
   </g>
   <g id="patch_4">
    <path clip-path="url(#pa49cb217f1)" d="
M35.5226 51.5978
C37.8139 51.5978 40.0117 50.6874 41.632 49.0672
C43.2522 47.447 44.1626 45.2492 44.1626 42.9578
C44.1626 40.6664 43.2522 38.4686 41.632 36.8484
C40.0117 35.2282 37.8139 34.3178 35.5226 34.3178
C33.2312 34.3178 31.0334 35.2282 29.4132 36.8484
C27.7929 38.4686 26.8826 40.6664 26.8826 42.9578
C26.8826 45.2492 27.7929 47.447 29.4132 49.0672
C31.0334 50.6874 33.2312 51.5978 35.5226 51.5978
z
" style="fill:#984ea3;opacity:0.6;"/>
   </g>
   <g id="patch_5">
    <path clip-path="url(#pa49cb217f1)" d="
M18.5163 127.667
C20.8076 127.667 23.0054 126.756 24.6257 125.136
C26.2459 123.516 27.1563 121.318 27.1563 119.027
C27.1563 116.735 26.2459 114.538 24.6257 112.917
C23.0054 111.297 20.8076 110.387 18.5163 110.387
C16.2249 110.387 14.0271 111.297 12.4069 112.917
C10.7866 114.538 9.87627 116.735 9.87627 119.027
C9.87627 121.318 10.7866 123.516 12.4069 125.136
C14.0271 126.756 16.2249 127.667 18.5163 127.667
z
" style="fill:#ff7f00;opacity:0.6;"/>
   </g>
   <g id="patch_6">
    <path clip-path="url(#pa49cb217f1)" d="
M24.2769 93.2377
C26.5682 93.2377 28.7661 92.3273 30.3863 90.7071
C32.0065 89.0869 32.9169 86.8891 32.9169 84.5977
C32.9169 82.3064 32.0065 80.1085 30.3863 78.4883
C28.7661 76.8681 26.5682 75.9577 24.2769 75.9577
C21.9855 75.9577 19.7877 76.8681 18.1675 78.4883
C16.5473 80.1085 15.6369 82.3064 15.6369 84.5977
C15.6369 86.8891 16.5473 89.0869 18.1675 90.7071
C19.7877 92.3273 21.9855 93.2377 24.2769 93.2377
z
" style="fill:#984ea3;opacity:0.6;"/>
   </g>
   <g id="patch_7">
    <path clip-path="url(#pa49cb217f1)" d="
M37.606 75.6309
C39.8973 75.6309 42.0951 74.7205 43.7154 73.1003
C45.3356 71.4801 46.246 69.2822 46.246 66.9909
C46.246 64.6995 45.3356 62.5017 43.7154 60.8815
C42.0951 59.2612 39.8973 58.3509 37.606 58.3509
C35.3146 58.3509 33.1168 59.2612 31.4966 60.8815
C29.8763 62.5017 28.966 64.6995 28.966 66.9909
C28.966 69.2822 29.8763 71.4801 31.4966 73.1003
C33.1168 74.7205 35.3146 75.6309 37.606 75.6309
z
" style="fill:#ff7f00;opacity:0.6;"/>
   </g>
   <g id="patch_8">
    <path clip-path="url(#pa49cb217f1)" d="
M17.7731 69.8717
C20.0644 69.8717 22.2623 68.9613 23.8825 67.3411
C25.5027 65.7208 26.4131 63.523 26.4131 61.2317
C26.4131 58.9403 25.5027 56.7425 23.8825 55.1223
C22.2623 53.502 20.0644 52.5917 17.7731 52.5917
C15.4817 52.5917 13.2839 53.502 11.6637 55.1223
C10.0435 56.7425 9.13309 58.9403 9.13309 61.2317
C9.13309 63.523 10.0435 65.7208 11.6637 67.3411
C13.2839 68.9613 15.4817 69.8717 17.7731 69.8717
z
" style="fill:#984ea3;opacity:0.6;"/>
   </g>
   <g id="patch_9">
    <path clip-path="url(#pa49cb217f1)" d="
M123.743 150.503
C126.035 150.503 128.232 149.593 129.853 147.972
C131.473 146.352 132.383 144.154 132.383 141.863
C132.383 139.572 131.473 137.374 129.853 135.754
C128.232 134.133 126.035 133.223 123.743 133.223
C121.452 133.223 119.254 134.133 117.634 135.754
C116.014 137.374 115.103 139.572 115.103 141.863
C115.103 144.154 116.014 146.352 117.634 147.972
C119.254 149.593 121.452 150.503 123.743 150.503
z
" style="fill:#ff7f00;opacity:0.6;"/>
   </g>
   <g id="patch_10">
    <path clip-path="url(#pa49cb217f1)" d="
M146.163 157.57
C148.454 157.57 150.652 156.66 152.272 155.039
C153.892 153.419 154.803 151.221 154.803 148.93
C154.803 146.639 153.892 144.441 152.272 142.821
C150.652 141.2 148.454 140.29 146.163 140.29
C143.871 140.29 141.673 141.2 140.053 142.821
C138.433 144.441 137.523 146.639 137.523 148.93
C137.523 151.221 138.433 153.419 140.053 155.039
C141.673 156.66 143.871 157.57 146.163 157.57
z
" style="fill:#984ea3;opacity:0.6;"/>
   </g>
   <g id="patch_11">
    <path clip-path="url(#pa49cb217f1)" d="
M95.174 143.306
C97.4654 143.306 99.6632 142.396 101.283 140.776
C102.904 139.156 103.814 136.958 103.814 134.666
C103.814 132.375 102.904 130.177 101.283 128.557
C99.6632 126.937 97.4654 126.026 95.174 126.026
C92.8827 126.026 90.6849 126.937 89.0646 128.557
C87.4444 130.177 86.534 132.375 86.534 134.666
C86.534 136.958 87.4444 139.156 89.0646 140.776
C90.6849 142.396 92.8827 143.306 95.174 143.306
z
" style="fill:#ff7f00;opacity:0.6;"/>
   </g>
   <g id="patch_12">
    <path clip-path="url(#pa49cb217f1)" d="
M68.7278 151.22
C71.0191 151.22 73.2169 150.31 74.8372 148.689
C76.4574 147.069 77.3678 144.871 77.3678 142.58
C77.3678 140.289 76.4574 138.091 74.8372 136.471
C73.2169 134.85 71.0191 133.94 68.7278 133.94
C66.4364 133.94 64.2386 134.85 62.6184 136.471
C60.9981 138.091 60.0878 140.289 60.0878 142.58
C60.0878 144.871 60.9981 147.069 62.6184 148.689
C64.2386 150.31 66.4364 151.22 68.7278 151.22
z
" style="fill:#984ea3;opacity:0.6;"/>
   </g>
   <g id="line2d_1">
    <path clip-path="url(#pa49cb217f1)" d="
M47.6686 44.6575
L44.0792 44.1552" style="fill:none;opacity:0.6;stroke:#000000;stroke-dasharray:1.000000,3.000000;stroke-dashoffset:0.0;stroke-width:2.0;"/>
   </g>
   <g id="line2d_2">
    <path clip-path="url(#pa49cb217f1)" d="
M19.9421 110.505
L22.8511 93.1193" style="fill:none;opacity:0.6;stroke:#000000;stroke-dasharray:1.000000,3.000000;stroke-dashoffset:0.0;stroke-width:2.0;"/>
   </g>
   <g id="line2d_3">
    <path clip-path="url(#pa49cb217f1)" d="
M29.3087 64.5815
L26.0703 63.6411" style="fill:none;opacity:0.6;stroke:#000000;stroke-dasharray:1.000000,3.000000;stroke-dashoffset:0.0;stroke-width:2.0;"/>
   </g>
   <g id="line2d_4">
    <path clip-path="url(#pa49cb217f1)" d="
M131.984 144.46
L137.922 146.332" style="fill:none;opacity:0.6;stroke:#000000;stroke-dasharray:1.000000,3.000000;stroke-dashoffset:0.0;stroke-width:2.0;"/>
   </g>
   <g id="line2d_5">
    <path clip-path="url(#pa49cb217f1)" d="
M86.8967 137.143
L77.0051 140.103" style="fill:none;opacity:0.6;stroke:#000000;stroke-dasharray:1.000000,3.000000;stroke-dashoffset:0.0;stroke-width:2.0;"/>
   </g>
   <g id="patch_13">
    <path d="
M7.2 180
L7.2 7.2" style="fill:none;stroke:#000000;stroke-linecap:square;stroke-linejoin:miter;"/>
   </g>
   <g id="patch_14">
    <path d="
M7.2 7.2
L174.6 7.2" style="fill:none;stroke:#000000;stroke-linecap:square;stroke-linejoin:miter;"/>
   </g>
   <g id="patch_15">
    <path d="
M174.6 180
L174.6 7.2" style="fill:none;stroke:#000000;stroke-linecap:square;stroke-linejoin:miter;"/>
   </g>
   <g id="patch_16">
    <path d="
M7.2 180
L174.6 180" style="fill:none;stroke:#000000;stroke-linecap:square;stroke-linejoin:miter;"/>
   </g>
   <g id="matplotlib.axis_1"/>
   <g id="matplotlib.axis_2"/>
   <g id="text_1">
    <!-- A1 -->
    <defs>
     <path d="
M34.1875 63.1875
L20.7969 26.9062
L47.6094 26.9062
z

M28.6094 72.9062
L39.7969 72.9062
L67.5781 0
L57.3281 0
L50.6875 18.7031
L17.8281 18.7031
L11.1875 0
L0.78125 0
z
" id="BitstreamVeraSans-Roman-41"/>
     <path d="
M12.4062 8.29688
L28.5156 8.29688
L28.5156 63.9219
L10.9844 60.4062
L10.9844 69.3906
L28.4219 72.9062
L38.2812 72.9062
L38.2812 8.29688
L54.3906 8.29688
L54.3906 0
L12.4062 0
z
" id="BitstreamVeraSans-Roman-31"/>
    </defs>
    <g transform="translate(50.1244513198 48.6143384804)scale(0.1 -0.1)">
     <use xlink:href="#BitstreamVeraSans-Roman-41"/>
     <use x="68.408203125" xlink:href="#BitstreamVeraSans-Roman-31"/>
    </g>
   </g>
   <g id="text_2">
    <!-- B5 -->
    <defs>
     <path d="
M19.6719 34.8125
L19.6719 8.10938
L35.5 8.10938
Q43.4531 8.10938 47.2812 11.4062
Q51.125 14.7031 51.125 21.4844
Q51.125 28.3281 47.2812 31.5625
Q43.4531 34.8125 35.5 34.8125
z

M19.6719 64.7969
L19.6719 42.8281
L34.2812 42.8281
Q41.5 42.8281 45.0312 45.5312
Q48.5781 48.25 48.5781 53.8125
Q48.5781 59.3281 45.0312 62.0625
Q41.5 64.7969 34.2812 64.7969
z

M9.8125 72.9062
L35.0156 72.9062
Q46.2969 72.9062 52.3906 68.2188
Q58.5 63.5312 58.5 54.8906
Q58.5 48.1875 55.375 44.2344
Q52.25 40.2812 46.1875 39.3125
Q53.4688 37.75 57.5 32.7812
Q61.5312 27.8281 61.5312 20.4062
Q61.5312 10.6406 54.8906 5.3125
Q48.25 0 35.9844 0
L9.8125 0
z
" id="BitstreamVeraSans-Roman-42"/>
     <path d="
M10.7969 72.9062
L49.5156 72.9062
L49.5156 64.5938
L19.8281 64.5938
L19.8281 46.7344
Q21.9688 47.4688 24.1094 47.8281
Q26.2656 48.1875 28.4219 48.1875
Q40.625 48.1875 47.75 41.5
Q54.8906 34.8125 54.8906 23.3906
Q54.8906 11.625 47.5625 5.09375
Q40.2344 -1.42188 26.9062 -1.42188
Q22.3125 -1.42188 17.5469 -0.640625
Q12.7969 0.140625 7.71875 1.70312
L7.71875 11.625
Q12.1094 9.23438 16.7969 8.0625
Q21.4844 6.89062 26.7031 6.89062
Q35.1562 6.89062 40.0781 11.3281
Q45.0156 15.7656 45.0156 23.3906
Q45.0156 31 40.0781 35.4375
Q35.1562 39.8906 26.7031 39.8906
Q22.75 39.8906 18.8125 39.0156
Q14.8906 38.1406 10.7969 36.2812
z
" id="BitstreamVeraSans-Roman-35"/>
    </defs>
    <g transform="translate(29.8382014287 45.7171711706)scale(0.1 -0.1)">
     <use xlink:href="#BitstreamVeraSans-Roman-42"/>
     <use x="68.603515625" xlink:href="#BitstreamVeraSans-Roman-35"/>
    </g>
   </g>
   <g id="text_3">
    <!-- A2 -->
    <defs>
     <path d="
M19.1875 8.29688
L53.6094 8.29688
L53.6094 0
L7.32812 0
L7.32812 8.29688
Q12.9375 14.1094 22.625 23.8906
Q32.3281 33.6875 34.8125 36.5312
Q39.5469 41.8438 41.4219 45.5312
Q43.3125 49.2188 43.3125 52.7812
Q43.3125 58.5938 39.2344 62.25
Q35.1562 65.9219 28.6094 65.9219
Q23.9688 65.9219 18.8125 64.3125
Q13.6719 62.7031 7.8125 59.4219
L7.8125 69.3906
Q13.7656 71.7812 18.9375 73
Q24.125 74.2188 28.4219 74.2188
Q39.75 74.2188 46.4844 68.5469
Q53.2188 62.8906 53.2188 53.4219
Q53.2188 48.9219 51.5312 44.8906
Q49.8594 40.875 45.4062 35.4062
Q44.1875 33.9844 37.6406 27.2188
Q31.1094 20.4531 19.1875 8.29688" id="BitstreamVeraSans-Roman-32"/>
    </defs>
    <g transform="translate(12.4545466905 121.786086407)scale(0.1 -0.1)">
     <use xlink:href="#BitstreamVeraSans-Roman-41"/>
     <use x="68.408203125" xlink:href="#BitstreamVeraSans-Roman-32"/>
    </g>
   </g>
   <g id="text_4">
    <!-- B2 -->
    <g transform="translate(18.6565779884 87.3570897343)scale(0.1 -0.1)">
     <use xlink:href="#BitstreamVeraSans-Roman-42"/>
     <use x="68.603515625" xlink:href="#BitstreamVeraSans-Roman-32"/>
    </g>
   </g>
   <g id="text_5">
    <!-- A3 -->
    <defs>
     <path d="
M40.5781 39.3125
Q47.6562 37.7969 51.625 33
Q55.6094 28.2188 55.6094 21.1875
Q55.6094 10.4062 48.1875 4.48438
Q40.7656 -1.42188 27.0938 -1.42188
Q22.5156 -1.42188 17.6562 -0.515625
Q12.7969 0.390625 7.625 2.20312
L7.625 11.7188
Q11.7188 9.32812 16.5938 8.10938
Q21.4844 6.89062 26.8125 6.89062
Q36.0781 6.89062 40.9375 10.5469
Q45.7969 14.2031 45.7969 21.1875
Q45.7969 27.6406 41.2812 31.2656
Q36.7656 34.9062 28.7188 34.9062
L20.2188 34.9062
L20.2188 43.0156
L29.1094 43.0156
Q36.375 43.0156 40.2344 45.9219
Q44.0938 48.8281 44.0938 54.2969
Q44.0938 59.9062 40.1094 62.9062
Q36.1406 65.9219 28.7188 65.9219
Q24.6562 65.9219 20.0156 65.0312
Q15.375 64.1562 9.8125 62.3125
L9.8125 71.0938
Q15.4375 72.6562 20.3438 73.4375
Q25.25 74.2188 29.5938 74.2188
Q40.8281 74.2188 47.3594 69.1094
Q53.9062 64.0156 53.9062 55.3281
Q53.9062 49.2656 50.4375 45.0938
Q46.9688 40.9219 40.5781 39.3125" id="BitstreamVeraSans-Roman-33"/>
    </defs>
    <g transform="translate(31.4442476635 69.7502590702)scale(0.1 -0.1)">
     <use xlink:href="#BitstreamVeraSans-Roman-41"/>
     <use x="68.408203125" xlink:href="#BitstreamVeraSans-Roman-33"/>
    </g>
   </g>
   <g id="text_6">
    <!-- B4 -->
    <defs>
     <path d="
M37.7969 64.3125
L12.8906 25.3906
L37.7969 25.3906
z

M35.2031 72.9062
L47.6094 72.9062
L47.6094 25.3906
L58.0156 25.3906
L58.0156 17.1875
L47.6094 17.1875
L47.6094 0
L37.7969 0
L37.7969 17.1875
L4.89062 17.1875
L4.89062 26.7031
z
" id="BitstreamVeraSans-Roman-34"/>
    </defs>
    <g transform="translate(11.9324601296 63.9910490681)scale(0.1 -0.1)">
     <use xlink:href="#BitstreamVeraSans-Roman-42"/>
     <use x="68.603515625" xlink:href="#BitstreamVeraSans-Roman-34"/>
    </g>
   </g>
   <g id="text_7">
    <!-- A4 -->
    <g transform="translate(117.461190014 144.622286414)scale(0.1 -0.1)">
     <use xlink:href="#BitstreamVeraSans-Roman-41"/>
     <use x="68.408203125" xlink:href="#BitstreamVeraSans-Roman-34"/>
    </g>
   </g>
   <g id="text_8">
    <!-- B1 -->
    <g transform="translate(140.50319225 151.68937572)scale(0.1 -0.1)">
     <use xlink:href="#BitstreamVeraSans-Roman-42"/>
     <use x="68.603515625" xlink:href="#BitstreamVeraSans-Roman-31"/>
    </g>
   </g>
   <g id="text_9">
    <!-- A5 -->
    <g transform="translate(89.0482565365 137.425736836)scale(0.1 -0.1)">
     <use xlink:href="#BitstreamVeraSans-Roman-41"/>
     <use x="68.408203125" xlink:href="#BitstreamVeraSans-Roman-35"/>
    </g>
   </g>
   <g id="text_10">
    <!-- B3 -->
    <g transform="translate(63.0074623381 145.339413442)scale(0.1 -0.1)">
     <use xlink:href="#BitstreamVeraSans-Roman-42"/>
     <use x="68.603515625" xlink:href="#BitstreamVeraSans-Roman-33"/>
    </g>
   </g>
  </g>
 </g>
 <defs>
  <clipPath id="pa49cb217f1">
   <rect height="172.8" width="167.4" x="7.2" y="7.2"/>
  </clipPath>
 </defs>
</svg>
