<svg version="1.1" xmlns="http://www.w3.org/2000/svg" viewBox="0 0 984.7913480587304 380.8984375">
  <!-- svg-source:excalidraw -->
  <defs>
    <style>
      @font-face {
        font-family: "Virgil";
        src: url("https://excalidraw.com/FG_Virgil.woff2");
      }
      @font-face {
        font-family: "Cascadia";
        src: url("https://excalidraw.com/Cascadia.woff2");
      }
    </style>
  </defs>
  <rect x="0" y="0" width="984.7913480587304" height="380.8984375" fill="#ffffff"></rect><g transform="translate(399.453125 10) rotate(0 49.9921875 18.73828125)"><path d="M0.6069005317986012 -0.3044295497238636 C21.15376938191766 0.21772638118680354, 41.382114825054295 -2.261181561585108, 101.45605607703325 -0.48273052647709846 M-0.6521446201950312 0.3270385656505823 C21.049169985702605 -0.27900786100275554, 41.70219624626333 0.08944295944325886, 100.03499006293711 -0.7602969612926245 M99.48717923834917 -0.13661064580082893 C101.82715818913665 10.830137188707885, 101.78186759980407 18.74693919191777, 101.62608774378893 36.5924179367721 M99.53017829917368 -0.5289455857127905 C99.42161326694053 13.841680126219579, 99.31726061391394 28.609379583879488, 100.19008176587519 37.147858062759035 M101.15791280940172 37.320160131901496 C77.20785902215573 39.65917814950603, 59.08210409355232 38.0920820353474, -0.04318646714091301 36.822607140988104 M99.22129600308833 36.890302577987306 C66.03276076583714 37.81911060627869, 30.996010425436538 37.250881586636815, -0.7735341880470514 38.20777128078043 M-0.788979809731245 36.632166963070624 C0.45924873434923935 24.935901262356488, -0.6593527070341225 13.01171121471852, -0.1903163604438305 1.2389650158584118 M-0.8718212936073542 37.79089877940714 C-0.9020792956439254 29.40062916423048, 0.11939584063613445 21.381188177593863, -0.3617782089859247 0.604074040427804" stroke="#000000" stroke-width="1" fill="none"></path></g><g transform="translate(420.55859375 15.392578125) rotate(0 27.5 12.5)"><text x="27.5" y="18" font-family="Virgil, Segoe UI Emoji" font-size="20px" fill="#000000" text-anchor="middle" style="white-space: pre;" direction="ltr">main()</text></g><g><g transform="translate(403.65899961143737 50.21909733170645) rotate(0 -138.67574893970976 32.78251473604236)"><path d="M0.7767654307186602 0.044106220453977496 C-45.28931640353831 11.051487320964224, -230.76742583647527 54.20546009393874, -277.31218580183577 65.34077469664625 M-0.27457144749350837 -0.9783419591467828 C-46.39655661666612 10.239159428603013, -232.1598886851703 55.55129073783289, -278.1282633101382 66.54337143123149" stroke="#000000" stroke-width="1" fill="none"></path></g></g><g><g transform="translate(428.39097966998816 49.924181248247635) rotate(0 -76.66661101392253 34.440835667401515)"><path d="M-0.05451016500592232 -0.8601750008761883 C-25.40683143545645 10.664591142286849, -127.07122060604182 58.23418605799472, -152.7992460696076 69.74184633567924 M-1.542266730973497 1.3026291783247141 C-26.914547314399435 12.461398685633506, -128.21707707905003 56.8463774805857, -153.27871186283912 68.16854125783773" stroke="#000000" stroke-width="1" fill="none"></path></g></g><g><g transform="translate(470.0859375 50.4375) rotate(0 73.66669595730025 32.14688296552282)"><path d="M0.4877509005367755 0.223719810694456 C24.826189680277988 10.624166073893818, 121.60051023751343 53.14022188532011, 145.76779041740113 63.543894619466734 M-0.7153186060208827 -0.7044312340300531 C24.026258510557625 10.396672502077804, 123.29455557468194 54.31269234597527, 148.0487105206214 64.99819716507568" stroke="#000000" stroke-width="1" fill="none"></path></g></g><g><g transform="translate(491.244140625 49.44531250000003) rotate(0 154.13592207473238 31.98741385747678)"><path d="M0.023006118088960692 -0.6716737277805805 C51.165741664250376 10.080484405155294, 256.13111937383655 52.88634133932648, 307.38426370295696 63.58086168539712 M-1.4240543992538006 1.5900936197955162 C50.057752997386274 12.549546207604001, 258.3821230639285 54.19546576509719, 309.69589854871856 64.64650144273416" stroke="#000000" stroke-width="1" fill="none"></path></g></g><g><g transform="translate(449.26532065764775 52.131072299675964) rotate(0 0.29929337471509143 33.4502968359738)"><path d="M-0.6362019650638103 0.2949444048106671 C-0.4130949288606681 11.350102842951491, 0.10215695500371952 56.49544436586238, 0.380277266353346 67.49640739995047 M1.2306532739382239 -0.5958137280028313 C1.419965358404439 10.643229416933208, -0.2623537972290258 54.5169233390145, -0.32555177402684876 65.86279920756809" stroke="#000000" stroke-width="1" fill="none"></path></g></g><g transform="translate(159.60223070904613 117.3671875) rotate(0 83.12042554095387 20.5859375)"><path d="M-0.07403961941599846 -1.9664688296616077 C52.15703793035009 1.548247744906041, 102.84937722938376 3.0304756663919417, 166.566397305578 -1.558237213641405 M-0.791506240144372 -0.797718008980155 C35.3572709846961 0.5438238027249278, 71.22021103607466 0.07513930822953596, 165.58526339940727 0.12697801925241947 M164.8967148028314 1.1976727060973644 C167.05852828760834 7.951324422218022, 165.84726784964295 20.89868265078985, 165.08458876237273 39.23344872519374 M167.0021435301751 0.34777031280100346 C165.65038650681527 8.449038458449651, 167.4133205359176 17.73571042795084, 165.61546954326332 41.37962309457362 M164.97420191392303 42.74988720938563 C113.13360422269871 40.20025234111313, 60.42834054636697 43.18901865371231, -0.4046228341758251 41.62304649874568 M166.4453288000077 41.51580540277064 C128.70598635587686 41.17467548518802, 91.36525498047163 42.120385369354736, 0.284896245226264 41.39852831698954 M-1.3590343408286572 39.2252088598907 C0.19674175475520317 27.378675336643937, -1.7294310977609713 9.516619810223347, 1.36378987506032 -0.49894096329808235 M-0.8252927158027887 41.467190483585 C-1.183822209232312 29.66622969468881, -0.24769710957334612 17.790052612457657, 0.28026275895535946 0.5636375341564417" stroke="#000000" stroke-width="1" fill="none"></path></g><g transform="translate(162.701171875 125.453125) rotate(0 80.5 12.5)"><text x="80.5" y="18" font-family="Virgil, Segoe UI Emoji" font-size="20px" fill="#000000" text-anchor="middle" style="white-space: pre;" direction="ltr">let y = add(&amp;x);</text></g><g transform="translate(10 117.71484375) rotate(0 56.25 20.5859375)"><path d="M0.6625659056007862 -1.2811707444489002 C31.758459109347317 0.33882602234371006, 64.14654667954892 1.3757681467104703, 112.5769031830132 0.19354723021388054 M0.1330577041953802 0.8284392151981592 C26.130073635373268 0.8214707623701543, 53.44629389699549 1.1488239418249577, 112.53018574975431 -0.9036736097186804 M113.42946799471974 -1.650426883250475 C112.69622011887114 13.722205459911493, 112.81372936474364 29.537689823337132, 113.88880725577474 40.28691850230098 M111.76284652017057 0.8643751535564661 C112.95213779218757 9.144370863141376, 111.93871798523033 17.136564830172574, 112.24828290008008 40.535744765773416 M113.50086303427815 41.83140264078975 C86.03728251578286 41.0358832932543, 59.18840612936765 40.61134623060934, -1.0972127132117748 41.61699555441737 M111.9735126402229 41.100531199947 C87.83308981126174 41.10952396062203, 62.934600804932415 39.38410843280144, 0.5623330380767584 41.54995600320399 M1.4022637195885181 41.843883257359266 C-1.2457949372401345 28.124733134332928, -1.2853367777934182 13.615769015945261, 1.320137221366167 0.34381256625056267 M0.9114794041961432 41.19419495202601 C-0.24436541663744715 28.996637883668882, 1.2438970578994486 16.19987770557054, 0.2496188785880804 -0.6471116747707129" stroke="#000000" stroke-width="1" fill="none"></path></g><g transform="translate(16.8203125 126.66796875) rotate(0 50.5 12.5)"><text x="50.5" y="18" font-family="Virgil, Segoe UI Emoji" font-size="20px" fill="#000000" text-anchor="middle" style="white-space: pre;" direction="ltr">let x = 2;</text></g><g transform="translate(296.8515625 330.90234375) rotate(0 45.490234375 19.998046875)"><path d="M-0.7367239184677601 1.5997316427528858 C28.81386641035132 0.7347873443208667, 56.81414469693407 1.2345483296953175, 91.42166028544302 0.7566073723137379 M0.26083330251276493 0.684345593675971 C19.12688992351249 -0.18289709613607552, 37.490789333208504 -0.678733056047422, 91.81216202117498 0.6658928897231817 M91.7417791895568 1.2162278480827808 C91.18734080725848 7.929654472957925, 89.94423074656665 19.025729565850646, 91.8529031090438 41.27503915503623 M91.44811544753607 -0.2262632343918085 C91.00595226591761 12.603265212410049, 91.71204003399546 24.112044376374993, 90.55142513848837 39.63192247413101 M90.08198807761069 41.43555684760215 C72.30381490132491 40.59649594108743, 51.930163667177816 41.2675749806611, 0.6056905798614025 41.28607423976066 M90.09104982949789 40.85538219474258 C61.45007069914642 40.22274123519144, 30.40178299030375 40.03901236146174, -0.8693211283534765 40.995906999334714 M1.818936925381422 41.90041883662345 C-0.022440359201645887 28.62849053942265, -0.5781038256551981 14.25703297586443, -0.8122868724167347 -1.8996184282004833 M0.7160646710544825 39.15383022092285 C-0.6070484061710156 29.317351379637707, -0.2664734859935559 18.172696497703154, 0.8126795683056116 0.8554416801780462" stroke="#000000" stroke-width="1" fill="none"></path></g><g transform="translate(318.35546875 339.2578125) rotate(0 25.5 12.5)"><text x="25.5" y="18" font-family="Virgil, Segoe UI Emoji" font-size="20px" fill="#000000" text-anchor="middle" style="white-space: pre;" direction="ltr">1 + *i</text></g><g transform="translate(563.4195894412696 117.31640625) rotate(0 92.91244180873036 20.5859375)"><path d="M-1.8849649615585804 -1.1436593942344189 C71.82676113681724 1.4304549698635125, 144.93934706795673 -1.1269739861682868, 186.29233362153175 0.2791465111076832 M0.4776082430034876 0.6274980213493109 C43.45151089664409 -0.7543980065205518, 87.52579540148098 -1.0551350894787732, 185.48190285451713 -0.02440805174410343 M187.67934705689552 0.8046849556267262 C184.91881801875573 9.961125290879863, 185.13426508697015 21.33029221915058, 187.72864236310127 41.510285813361406 M185.87737776525321 -0.054991910234093666 C185.09086339230856 11.79793070566666, 186.1589811896833 22.0869399762305, 185.78552754409614 41.41485761664808 M183.97774686291817 42.033596474677324 C148.55913336825452 42.9796351087214, 111.87121369072956 40.66774295688882, -0.4536222405731678 40.37270029261708 M186.48311121948066 40.47645210288465 C138.25971690321637 40.31058101417028, 92.04405307096084 40.5660916423937, -0.41429545544087887 40.71594541333616 M0.23276863619685173 41.146712858229876 C1.2849961918938788 28.697863215653342, 0.5511711043465766 18.604562431719387, 0.629559975117445 1.489558894187212 M0.4774868283420801 41.93856590054929 C1.1231215636318665 31.794281646303716, 0.8628358881062013 22.286157288908722, 0.49026993848383427 -0.17979944683611393" stroke="#000000" stroke-width="1" fill="none"></path></g><g transform="translate(573.310546875 125.40234375) rotate(0 83.5 12.5)"><text x="83.5" y="18" font-family="Virgil, Segoe UI Emoji" font-size="20px" fill="#000000" text-anchor="middle" style="white-space: pre;" direction="ltr">println!("y: {}", y);</text></g><g transform="translate(362.3483244590461 119.84765625) rotate(0 83.12042554095387 20.5859375)"><path d="M0.03436465933918953 -1.1835290379822254 C43.910828265957825 1.8877289850109593, 84.33266006715654 2.0201072055691256, 164.52055430039763 -0.4459402747452259 M0.5629248525947332 0.9455596003681421 C32.496925801135745 -0.8874557474493219, 67.4184660410586 -1.6698933699964715, 165.83392628841102 -0.6667068805545568 M167.51002096757293 0.09955094382166862 C167.40828019067848 8.889461529281107, 167.75176447317207 19.068269056879217, 167.7957228384912 40.38643703982234 M165.8540931623429 0.8084646854549646 C165.31637146750728 9.490101677292841, 166.88777908364574 17.397242590639507, 167.08229306153953 40.417673805728555 M167.04272734746337 40.54108963534236 C116.4904506758356 39.42966871241154, 67.32167696441293 41.40574352720799, -1.5916630439460278 42.0050806812942 M166.04913046769798 40.626106480136514 C118.30736356201045 42.35795886781094, 71.09305293989226 42.3818833973634, -0.004301736131310463 41.52277020551264 M0.7283089943230152 41.37533996626735 C1.7610152209716035 30.076098354693386, 0.7438351357894135 17.167462669633096, 0.3617052622139454 -0.12528767064213753 M-0.8031961414963007 42.09092883206904 C-0.6714038788180915 28.14327225096349, -1.0707260905604925 15.617530724179229, 0.11047052405774593 0.5226667914539576" stroke="#000000" stroke-width="1" fill="none"></path></g><g transform="translate(365.447265625 127.93359375) rotate(0 80.5 12.5)"><text x="80.5" y="18" font-family="Virgil, Segoe UI Emoji" font-size="20px" fill="#000000" text-anchor="middle" style="white-space: pre;" direction="ltr">let z = add(&amp;y);</text></g><g transform="translate(788.9664644412696 117.046875) rotate(0 92.91244180873036 20.5859375)"><path d="M-0.8551392965018749 1.5710185579955578 C50.223370420942935 2.172333954673735, 104.68269755171782 1.6391695726928386, 186.95658373460176 0.2963545136153698 M0.3713128473609686 -0.3575450386852026 C69.03642718682208 -0.9559650503456378, 136.13463745829003 -1.9470132075607562, 184.88794502429667 -0.9628306236118078 M185.20398497208956 0.6014892868697643 C184.49980405274985 9.279888610195487, 184.0564383596575 16.64454815690988, 183.89476191625002 40.26723585650325 M186.5164493005723 0.5670894775539637 C185.7646041031767 12.439672036955018, 185.69464666804564 26.213295627239862, 186.81274154596034 42.06194160319865 M184.7317322455347 41.66200075671077 C121.4118571481639 40.26230350457753, 60.654684229748185 42.442952904334916, -0.4961663894355297 42.72409055754542 M185.69065072946253 41.61613843776286 C138.43528429864367 40.24112964227425, 92.23105579201913 40.62919754340874, -0.30816502310335636 41.73804477788508 M0.8708027191460133 39.68993089720607 C1.379511269235809 32.47162062318239, 1.4397390209676815 21.097529556922378, 1.502047497779131 1.3347652964293957 M0.5442467238754034 40.505483189597726 C0.7196247908446822 31.012342481015367, 0.3639961215827498 23.288528936129296, -0.9188184831291437 -0.28699912689626217" stroke="#000000" stroke-width="1" fill="none"></path></g><g transform="translate(796.857421875 125.3671875) rotate(0 85.5 12.5)"><text x="85.5" y="18" font-family="Virgil, Segoe UI Emoji" font-size="20px" fill="#000000" text-anchor="middle" style="white-space: pre;" direction="ltr">println!("z: {}", z);</text></g><g transform="translate(297.525390625 235.814453125) rotate(0 45.490234375 19.998046875)"><path d="M-0.6920467801392078 -1.790124099701643 C21.497813345974276 2.0988143653475704, 39.24612607828893 -0.8397371797955571, 90.24849913641806 -0.9052172116935253 M-0.3066703286021948 0.7165680434554815 C27.932795638725647 -0.573595532320396, 57.49169863303103 -0.9317876781448283, 91.22555629350241 0.6208124067634344 M90.00773547217246 1.1919459886848927 C91.34180496017248 7.418848046063072, 88.92171201984198 16.05439954802133, 90.48244200274344 39.74697693064811 M90.30186311341818 -0.9726834390312433 C90.90867228464299 9.040805270573044, 90.74423659996205 19.328942646559167, 91.81508682109411 39.84500353597107 M92.48755846545096 40.7237482853234 C57.70888199073449 41.1107123597053, 21.998179606594192 40.013156603136395, -1.3288917727768421 41.06133003905418 M90.08754537440832 39.69183056615295 C64.50306541622192 40.17252320421578, 36.36802736782555 40.52011490238549, 0.7649326715618372 40.061082711443326 M-1.5964498706161976 41.764389235526345 C1.0551742223716427 31.061130065742343, 0.13331889190441853 23.85465510616342, 0.81828198954463 -0.7100826911628246 M0.9225078020244837 40.370205273851774 C0.9204223065396219 28.283745071567694, 0.7878126411457925 17.886850527852953, -0.5039466824382544 -0.010307976976037025" stroke="#000000" stroke-width="1" fill="none"></path></g><g transform="translate(318.529296875 244.169921875) rotate(0 26 12.5)"><text x="26" y="18" font-family="Virgil, Segoe UI Emoji" font-size="20px" fill="#000000" text-anchor="middle" style="white-space: pre;" direction="ltr">add()</text></g><g><g transform="translate(446.37257492467756 164.28779123468797) rotate(0 -34.87187424858098 33.80419136490201)"><path d="M-0.5663508765399455 0.07683854028582582 C-12.376047516986722 11.328989073232107, -58.95482238195833 56.1622081855699, -70.69629773944612 67.32390843165095 M1.3371761839371175 -0.9284251714032143 C-10.550803342359133 10.4905425214938, -58.960577305452865 57.06629618098173, -71.08092468109909 68.53680790120724" stroke="#000000" stroke-width="1" fill="none"></path></g></g><g><g transform="translate(251.33005043827006 166.45525742292403) rotate(0 36.16505529242568 33.71398269303137)"><path d="M0.22297602966427799 -0.7240720756351948 C12.604020925764937 10.509804638947035, 61.08026695551822 56.644695018355975, 73.44921086895286 68.15203746169797 M-1.1191002841014415 1.5101861393172293 C11.134889181288901 12.311367036250097, 59.73837467645765 55.46249248618564, 72.2475048374199 66.26018933427513" stroke="#000000" stroke-width="1" fill="none"></path></g></g><g><g transform="translate(344.18551918827006 286.27166367292403) rotate(0 -0.04737867133712825 20.446994972834318)"><path d="M0.5275269024074078 0.251106107980013 C0.5793652866035777 7.127190743237717, 0.6177383918315549 33.37711761072269, 0.2484624266624904 40.242444036751884 M-0.6546602031681688 -0.6626671306695788 C-0.6553613168839291 6.469313797811029, -0.3402346254232892 34.86160170213311, -0.09954042778345862 41.556657076338205" stroke="#000000" stroke-width="1" fill="none"></path></g></g><g><g transform="translate(670.3222379382698 169.43181992292415) rotate(0 -0.36195901833940525 20.66636084557041)"><path d="M-1.1583284385502337 -0.8720572583377362 C-1.1458348419517201 5.991785250455124, 0.138569452241101 33.81323463991276, 0.029606902599380147 40.6674419863521 M0.4344104018714279 1.2845087356958538 C0.3737084870692418 8.397820421317574, -0.4609672582987316 35.52668017164795, -0.4332951019797018 42.20477894947854" stroke="#000000" stroke-width="1" fill="none"></path></g></g><g><g transform="translate(895.9472379382696 164.45525742292415) rotate(0 0.5157243447198425 20.714846362327194)"><path d="M-0.46386911943554876 0.5737357266247272 C-0.32575067542492586 7.474587665349228, 0.32955434508625486 34.844997168332256, 0.3027840256691434 41.60034968689074 M1.4934608635213227 -0.1706569622363896 C1.6243368410226033 6.389094104031084, 0.44028470329012787 33.440118027487685, -0.016699989298313067 39.96746319279996" stroke="#000000" stroke-width="1" fill="none"></path></g></g><g transform="translate(621.033203125 213.345703125) rotate(0 45.490234375 19.998046875)"><path d="M1.38418622687459 0.05335746333003044 C32.08720494592052 1.0544759604083813, 65.61537701579653 -0.11763495477563957, 92.6916738338768 1.5806038193404675 M-0.04103637672960758 -0.8669411148875952 C33.21597141906894 -0.20656522002704125, 66.47296967812433 0.43167434248440284, 91.25430410169061 0.3062614593654871 M90.1053348369896 0.410885076969862 C93.07510248269496 9.49857292566813, 90.26824191655574 21.71881006025507, 90.48687716200943 41.83654985949399 M91.13366287015374 0.8333739433437586 C90.64526875371611 13.102246706358718, 91.45115055198347 27.134953469007467, 90.41684781573709 39.44997594691815 M92.2166697569191 40.65489874407651 C61.70037629684009 41.16009581492467, 29.37862095321615 41.42640805647893, -1.5317126922309399 38.69272707030179 M91.11983024142678 39.11464641429486 C57.94227598012146 39.855569159297104, 25.78900417426047 40.15124509265816, 0.769216587767005 40.85000185109677 M-1.295358818024397 39.73058889433744 C-0.16484807646913396 23.292246536301548, 1.0260254272158635 7.95691244852933, 1.5090732164680958 0.47323213145136833 M0.8959203269332647 40.96619514562192 C-0.3628709698378953 29.858654567102363, 0.01964428179860983 17.4769841210291, -0.9933381173759699 0.5757361445575953" stroke="#000000" stroke-width="1" fill="none"></path></g><g transform="translate(660.037109375 221.701171875) rotate(0 8 12.5)"><text x="8" y="18" font-family="Virgil, Segoe UI Emoji" font-size="20px" fill="#000000" text-anchor="middle" style="white-space: pre;" direction="ltr">...</text></g><g transform="translate(847.275390625 213.927734375) rotate(0 45.490234375 19.998046875)"><path d="M-1.7646986432373524 0.23179228976368904 C35.23864204615164 -1.628570693185829, 70.2799275292418 -1.3436420137195815, 90.26663706824179 -1.3691101484000683 M-0.5998045410960913 0.8349967505782843 C25.98491729753513 0.18777549235899627, 52.28214256939389 -0.6022251251451236, 91.42926351167257 -0.22805930115282536 M92.57396910712119 -0.14426140114665031 C91.52314095933721 9.841303254625387, 91.16814201314733 19.084150167477503, 90.90020762011405 41.71109302714469 M90.85456935502584 0.7103052046149969 C89.9225061679546 12.619648397205317, 91.28387309557834 26.621511349927474, 90.86707589961584 40.409812858328245 M89.77373228594656 41.620237428694985 C56.94787198038026 40.56958263604838, 25.106977952890134 40.64667897908885, 1.7883062176406384 39.325525481253884 M91.01587722636755 39.19865649007263 C69.14547466170549 40.79770138174014, 45.898830413083466 39.81602367073016, -0.1643862333148718 40.90822540782394 M-0.04053117707371712 39.51564522460105 C-0.00967893840082995 29.991894378225712, -1.4738621497274291 18.37606055455545, -1.5965329594910145 1.7575124092400074 M-0.2281245794147253 40.19452082179489 C0.43384450314020806 27.032194661438567, -0.6973766124489338 12.09605525340158, 0.27146158553659916 -0.2778045628219843" stroke="#000000" stroke-width="1" fill="none"></path></g><g transform="translate(886.279296875 222.283203125) rotate(0 8 12.5)"><text x="8" y="18" font-family="Virgil, Segoe UI Emoji" font-size="20px" fill="#000000" text-anchor="middle" style="white-space: pre;" direction="ltr">...</text></g></svg>